<?xml version="1.0" encoding="UTF-8"?>
<svg version="1.1" xmlns="http://www.w3.org/2000/svg" width="801" height="258">
<path d="M0 0 C8.25 0 16.5 0 25 0 C26.32 1.65 27.64 3.3 29 5 C29.61359375 5.75539063 30.2271875 6.51078125 30.859375 7.2890625 C34.29376925 11.53238433 37.62749658 15.81584739 40.8125 20.25 C43.85778616 24.48253223 47.01219495 28.60243492 50.25 32.6875 C54.78813882 38.41559392 59.20025892 44.22765272 63.57128906 50.08398438 C69.59498543 58.1496784 75.71099748 66.13874685 82 74 C82.33 49.58 82.66 25.16 83 0 C91.58 0 100.16 0 109 0 C109 38.94 109 77.88 109 118 C100.09 118 91.18 118 82 118 C74.10405075 109.96429943 74.10405075 109.96429943 72.3359375 106.359375 C70.24406045 102.36310864 67.89169002 99.07890652 65.0625 95.5625 C64.24333812 94.50734188 63.42698279 93.44999964 62.61328125 92.390625 C62.19385254 91.84728516 61.77442383 91.30394531 61.34228516 90.74414062 C59.34805425 88.15287369 57.36605921 85.55231433 55.3828125 82.95263672 C49.58034239 75.34730583 43.73529261 67.7768479 37.84472656 60.23950195 C37.29913086 59.54042725 36.75353516 58.84135254 36.19140625 58.12109375 C35.71904541 57.5170874 35.24668457 56.91308105 34.76000977 56.29077148 C32.14254007 52.88395804 29.57773334 49.43697779 27 46 C26.67 69.76 26.34 93.52 26 118 C17.42 118 8.84 118 0 118 C0 79.06 0 40.12 0 0 Z " fill="#F6F6F7" transform="translate(276,46)"/>
<path d="M0 0 C68.63874346 0 68.63874346 0 79.74609375 9.4921875 C85.51933536 15.51018 88.17184324 23.37809006 88.4375 31.625 C88.01273434 40.67379577 85.60743855 46.10273202 79.03515625 52.37109375 C77.09327308 53.92534573 75.26524463 54.99153539 73 56 C73.71285156 56.3403125 74.42570312 56.680625 75.16015625 57.03125 C84.57011046 61.79321875 90.38342142 66.91997341 94 77 C95.00848272 85.91280675 95.01880222 95.26324054 90 103 C82.1497666 112.73182176 74.18205247 116.4680204 62 118 C57.11819056 118.24984196 52.25041771 118.2343052 47.36328125 118.1953125 C46.15555054 118.19329834 44.94781982 118.19128418 43.70349121 118.18920898 C39.23978822 118.17883252 34.77613985 118.15091073 30.3125 118.125 C15.3078125 118.063125 15.3078125 118.063125 0 118 C0 79.06 0 40.12 0 0 Z M26 22 C26 30.58 26 39.16 26 48 C30.6715625 48.061875 30.6715625 48.061875 35.4375 48.125 C36.88080688 48.15231201 36.88080688 48.15231201 38.35327148 48.18017578 C45.34287339 48.2243912 51.99973969 47.83689406 58.0625 44.125 C61.074864 39.26634838 60.95435812 34.55682713 60 29 C57.0122321 24.60622368 54.05278615 23.26319654 49 22 C45.0370365 21.76326295 41.09313495 21.8119606 37.125 21.875 C31.618125 21.936875 31.618125 21.936875 26 22 Z M26 69 C26 77.91 26 86.82 26 96 C30.08375 96.061875 34.1675 96.12375 38.375 96.1875 C39.64134277 96.21481201 40.90768555 96.24212402 42.21240234 96.27026367 C49.58963408 96.32388901 57.447164 96.19514302 63.71679688 91.79516602 C66.53209408 88.95595245 67.33339699 86.28859255 67.5 82.4375 C67.25954653 78.57074821 66.56922647 76.01219656 64 73 C58.79897939 69.26593392 54.57059978 68.87469035 48.265625 68.90234375 C46.32236328 68.90717773 46.32236328 68.90717773 44.33984375 68.91210938 C42.97656183 68.92046402 41.61328058 68.92892896 40.25 68.9375 C38.87109535 68.94251832 37.49218896 68.94708065 36.11328125 68.95117188 C32.74216882 68.96295898 29.3710789 68.98089439 26 69 Z " fill="#F5F6F7" transform="translate(48,46)"/>
<path d="M0 0 C75.14104087 0 75.14104087 0 92.93359375 16.7421875 C106.52107685 31.58824654 107.7767148 48.97326643 107.17919922 68.12646484 C106.31610352 81.96656897 99.76332831 94.32344221 89.75 103.7109375 C65.10126189 124.22821099 29.23736075 118 0 118 C0 79.06 0 40.12 0 0 Z M26 23 C26 46.76 26 70.52 26 95 C53.23763816 95.93094924 53.23763816 95.93094924 74.375 82.625 C79.25371965 74.74399133 80.63922665 68.2585723 80.5 59 C80.51546875 57.97132812 80.5309375 56.94265625 80.546875 55.8828125 C80.49802892 46.28455788 77.7356393 38.92658131 71.19140625 31.859375 C57.86798785 20.55465636 43.18869831 23 26 23 Z " fill="#F5F6F7" transform="translate(408,46)"/>
<path d="M0 0 C8.91 0 17.82 0 27 0 C28.216875 2.84625 29.43375 5.6925 30.6875 8.625 C38.38971137 26.60776583 46.18945679 44.5484573 54 62.484375 C54.88567962 64.5189534 55.77134032 66.55354004 56.65698242 68.58813477 C58.38500966 72.55794202 60.11455126 76.52708463 61.8449707 80.49584961 C65.79923386 89.57242947 69.7332988 98.65758593 73.60546875 107.76953125 C73.94975418 108.57307541 74.29403961 109.37661957 74.64875793 110.20451355 C77 115.76756683 77 115.76756683 77 118 C67.76 118 58.52 118 49 118 C44.625 108.25 44.625 108.25 43.25634766 105.19628906 C42.89589355 104.39416992 42.53543945 103.59205078 42.1640625 102.765625 C41.61419678 101.54020996 41.61419678 101.54020996 41.05322266 100.29003906 C40.07938603 98.17261033 39.04229192 96.08458384 38 94 C13.25 93.505 13.25 93.505 -12 93 C-12.99 95.97 -13.98 98.94 -15 102 C-15.58061084 103.47077506 -16.18089441 104.93446102 -16.82421875 106.37890625 C-17.10096436 107.00611572 -17.37770996 107.6333252 -17.6628418 108.27954102 C-18.000979 109.03291748 -18.33911621 109.78629395 -18.6875 110.5625 C-20.3271875 114.2440625 -20.3271875 114.2440625 -22 118 C-31.24 118 -40.48 118 -50 118 C-49.20370221 114.01851103 -48.35056408 111.16315913 -46.76953125 107.51171875 C-46.30361572 106.42971191 -45.8377002 105.34770508 -45.35766602 104.23291016 C-44.84776123 103.0629248 -44.33785645 101.89293945 -43.8125 100.6875 C-43.2743039 99.44334982 -42.73647002 98.1990429 -42.19897461 96.95458984 C-40.47387161 92.96627832 -38.73812082 88.98265263 -37 85 C-36.71390869 84.34424988 -36.42781738 83.68849976 -36.13305664 83.01287842 C-33.52544824 77.03750941 -30.91295596 71.06428423 -28.29541016 65.09326172 C-24.23975012 55.84150117 -20.20312718 46.58170921 -16.1875 37.3125 C-15.91878082 36.69227966 -15.65006165 36.07205933 -15.37319946 35.43304443 C-11.43352509 26.33706896 -7.51516625 17.23207811 -3.62573242 8.11450195 C-3.29033447 7.32906006 -2.95493652 6.54361816 -2.609375 5.734375 C-2.32030273 5.05600586 -2.03123047 4.37763672 -1.73339844 3.67871094 C-1.19071392 2.43653427 -0.60621933 1.21243866 0 0 Z M13 36 C10.03555934 41.78265331 7.37790058 47.62945868 4.875 53.625 C4.52824219 54.44484375 4.18148437 55.2646875 3.82421875 56.109375 C2.02966073 60.38606117 0.47265137 64.58204588 -1 69 C8.57 69 18.14 69 28 69 C23.59962269 57.84731957 19.20456956 46.80342469 14 36 C13.67 36 13.34 36 13 36 Z " fill="#F4F5F5" transform="translate(192,46)"/>
<path d="M0 0 C16.8747444 -0.49329338 34.23403197 3.84953945 47.14453125 15.15625 C45.72770288 19.18033469 43.79667357 22.29041919 41.26953125 25.71875 C40.59148437 26.64816406 39.9134375 27.57757813 39.21484375 28.53515625 C37.3224526 30.93099485 35.35225544 33.05247695 33.14453125 35.15625 C32.53867187 34.76953125 31.9328125 34.3828125 31.30859375 33.984375 C28.61928366 32.31286534 25.89795734 30.71982991 23.14453125 29.15625 C22.39945313 28.73085937 21.654375 28.30546875 20.88671875 27.8671875 C15.32181334 25.17198941 9.98655383 24.72015579 3.89453125 24.59375 C2.74114258 24.55338623 2.74114258 24.55338623 1.56445312 24.51220703 C-2.44056198 24.5391739 -5.13015221 24.94047451 -8.36328125 27.40625 C-10.89027417 30.19465598 -11.64605141 31.05682574 -11.48046875 34.71875 C-11.25532706 37.67006386 -10.95948167 38.99156287 -9.35546875 41.53125 C-3.62728336 45.2545705 3.19508479 46.77449481 9.72290039 48.55273438 C23.67099268 52.38175131 38.10591757 56.38759254 46.44921875 69.15234375 C50.94737038 78.1021144 50.82594117 90.28717765 48.109375 99.76953125 C43.68338057 109.47219871 37.11130928 115.24023958 27.26953125 119.09375 C25.23534279 119.80307104 23.19472798 120.49462141 21.14453125 121.15625 C19.65953125 121.65125 19.65953125 121.65125 18.14453125 122.15625 C6.50581229 122.98552286 -5.81353546 123.24341337 -16.85546875 119.15625 C-17.84289062 118.8159375 -18.8303125 118.475625 -19.84765625 118.125 C-29.68940301 114.41869333 -37.56037062 108.67320264 -44.85546875 101.15625 C-43.73398437 99.83560547 -43.73398437 99.83560547 -42.58984375 98.48828125 C-41.59501573 97.315135 -40.6002261 96.14195618 -39.60546875 94.96875 C-39.11433594 94.39060547 -38.62320313 93.81246094 -38.1171875 93.21679688 C-35.30967819 89.90393589 -32.54977967 86.5626288 -29.85546875 83.15625 C-26.12347046 84.49526182 -23.22461517 86.17714005 -20.04296875 88.53125 C-9.68599518 95.92250265 0.20483199 99.53670635 13.14453125 98.15625 C16.96190614 96.71586505 18.87598637 94.55906732 21.14453125 91.15625 C21.57166818 87.31201766 21.54279085 84.93466649 19.76953125 81.46875 C13.61707911 76.04873264 4.79839977 74.42484035 -2.98046875 72.40625 C-28.02639909 65.53172783 -28.02639909 65.53172783 -34.88671875 55.87890625 C-40.06668405 46.66775828 -41.44219397 36.52591953 -39.20703125 26.14453125 C-36.23906336 17.05037323 -30.30077016 9.74787018 -21.85546875 5.15625 C-14.62857886 1.94911446 -7.84868044 0.42947636 0 0 Z " fill="#F5F5F6" transform="translate(699.85546875,42.84375)"/>
<path d="M0 0 C7.09744374 -0.59925459 14.16549649 -0.94002526 21.2890625 -0.76953125 C23.04017334 -0.73243042 23.04017334 -0.73243042 24.82666016 -0.69458008 C28.89700348 0.19633597 30.32640185 1.76639963 32.875 5 C33.61919438 6.85843017 34.35586135 8.72103365 35.02050781 10.609375 C37.17174819 15.85985998 40.34882704 20.6381402 43.25 25.5 C43.85440918 26.55058594 44.45881836 27.60117188 45.08154297 28.68359375 C45.65791504 29.68519531 46.23428711 30.68679687 46.828125 31.71875 C47.3427832 32.61529297 47.85744141 33.51183594 48.38769531 34.43554688 C50.08195412 37.13035222 51.96796384 39.55274562 54 42 C54.42297363 41.26475098 54.84594727 40.52950195 55.28173828 39.77197266 C56.88012946 36.99453344 58.47935093 34.21757435 60.07910156 31.44091797 C60.7659482 30.24839573 61.45248165 29.05569303 62.13867188 27.86279297 C70.64943752 13.0684942 70.64943752 13.0684942 73.73095703 8.14453125 C75.17238427 5.82523668 75.17238427 5.82523668 76.484375 2.3984375 C80.3336301 -1.27150448 84.1499498 -0.60705619 89.3046875 -0.52734375 C90.60664062 -0.47707031 91.90859375 -0.42679688 93.25 -0.375 C94.56742188 -0.34792969 95.88484375 -0.32085937 97.2421875 -0.29296875 C100.49643587 -0.22222422 103.74739748 -0.12354061 107 0 C105.70159958 4.27029472 104.06415785 7.9361404 101.83203125 11.796875 C101.19313965 12.90820801 100.55424805 14.01954102 99.89599609 15.16455078 C99.2016225 16.35977321 98.50712073 17.55492118 97.8125 18.75 C97.09668673 19.99044507 96.3813618 21.23117207 95.66650391 22.47216797 C94.18799673 25.03686727 92.70636267 27.59972085 91.22216797 30.16113281 C89.07905652 33.86073376 86.9465228 37.56634351 84.81640625 41.2734375 C82.31479762 45.62372024 79.81297528 49.97387677 77.3046875 54.3203125 C76.80952637 55.17898926 76.31436523 56.03766602 75.80419922 56.92236328 C74 60 74 60 72.48684692 62.17605591 C68.12163231 68.71589184 67.12438793 73.69048943 67.1953125 81.4765625 C67.18160614 82.52782318 67.16789978 83.57908386 67.15377808 84.66220093 C67.11671692 87.98357884 67.12017707 91.30344602 67.125 94.625 C67.10685662 96.89195021 67.08604881 99.15888075 67.0625 101.42578125 C67.00591002 106.95138837 67.00425472 112.47312078 67 118 C58.09 118 49.18 118 40 118 C40.06703125 114.77863281 40.1340625 111.55726563 40.203125 108.23828125 C41.44148544 77.76742469 41.44148544 77.76742469 28.70361328 51.18652344 C25.58736734 47.18693922 23.16908313 42.75098375 20.625 38.375 C19.62338182 36.70955928 18.61958322 35.04542734 17.61328125 33.3828125 C15.13234606 29.2470454 12.77398396 25.06036169 10.51171875 20.80078125 C9.25169318 18.46631527 7.95959469 16.15902931 6.64453125 13.85546875 C6.22905029 13.12618164 5.81356934 12.39689453 5.38549805 11.64550781 C4.55821604 10.19636226 3.72775042 8.74902858 2.89379883 7.30371094 C0 2.2213718 0 2.2213718 0 0 Z " fill="#F4F5F6" transform="translate(512,46)"/>
<path d="M0 0 C6.6 0 13.2 0 20 0 C20 14.85 20 29.7 20 45 C13.4 45 6.8 45 0 45 C0 30.15 0 15.3 0 0 Z " fill="#F5F6F7" transform="translate(623,46)"/>
<path d="M0 0 C1.98 0 3.96 0 6 0 C7.32 3.96 8.64 7.92 10 12 C11.65 8.04 13.3 4.08 15 0 C16.98 0 18.96 0 21 0 C22.32 3.63 23.64 7.26 25 11 C26.66832577 8.49751135 27.62381674 6.58850813 28.625 3.8125 C28.88539063 3.09707031 29.14578125 2.38164062 29.4140625 1.64453125 C29.60742188 1.10183594 29.80078125 0.55914062 30 0 C31.98 0 33.96 0 36 0 C34.43889635 8.74218041 31.21518143 16.75983375 28 25 C26.35 25 24.7 25 23 25 C20.525 17.08 20.525 17.08 18 9 C16.3962364 13.89040176 16.3962364 13.89040176 14.79907227 18.78295898 C13.11111111 23.88888889 13.11111111 23.88888889 12 25 C10.33382885 25.04063832 8.66611905 25.042721 7 25 C5.82347528 21.5866479 4.66051826 18.16882405 3.5 14.75 C3.16613281 13.78191406 2.83226562 12.81382812 2.48828125 11.81640625 C2.17246094 10.88183594 1.85664063 9.94726562 1.53125 8.984375 C1.23798828 8.12553711 0.94472656 7.26669922 0.64257812 6.38183594 C0 4 0 4 0 0 Z " fill="#83848A" transform="translate(318,189)"/>
<path d="M0 0 C0.69287109 0.02255859 1.38574219 0.04511719 2.09960938 0.06835938 C3.79651573 0.12687339 5.49229861 0.2165452 7.1875 0.3125 C7.33361313 3.68703898 7.42183467 7.06075766 7.5 10.4375 C7.54189453 11.38882813 7.58378906 12.34015625 7.62695312 13.3203125 C7.76515771 21.28089631 7.76515771 21.28089631 4.9140625 24.9296875 C1.26562031 28.11815417 -1.08193733 28.59836246 -5.8125 28.3125 C-9.3125 27.375 -9.3125 27.375 -11.8125 26.3125 C-11.4825 24.6625 -11.1525 23.0125 -10.8125 21.3125 C-8.95625 21.621875 -8.95625 21.621875 -7.0625 21.9375 C-3.69340165 22.37357124 -1.68408079 22.34653639 1.1875 20.3125 C-0.606875 20.43625 -0.606875 20.43625 -2.4375 20.5625 C-5.57928317 20.52336747 -7.26699121 20.1420658 -10.3125 19 C-13.6772321 15.382913 -13.49171179 12.86140681 -13.51171875 8.06640625 C-11.67661384 0.83875844 -6.72923562 -0.4185649 0 0 Z " fill="#83888A" transform="translate(486.8125,193.6875)"/>
<path d="M0 0 C3.8053125 -0.12375 3.8053125 -0.12375 7.6875 -0.25 C8.87218872 -0.30462402 8.87218872 -0.30462402 10.08081055 -0.36035156 C13.82693308 -0.41908455 15.67631024 -0.19125199 18.98828125 1.765625 C21.11515663 4.12790212 21.64557584 4.89438208 21.5 8 C21.29979823 11.6103052 20.16867253 13.14129531 18 16 C18.89542123 19.58168492 20.68667814 22.16092318 23 25 C19.875 25.4375 19.875 25.4375 16 25 C14.19884652 23.3471768 12.85872296 21.62843765 11.45703125 19.62890625 C9.72092673 17.68800656 8.53344364 17.38517023 6 17 C6 19.64 6 22.28 6 25 C4.02 25 2.04 25 0 25 C0 16.75 0 8.5 0 0 Z " fill="#808186" transform="translate(225,189)"/>
<path d="M0 0 C1.98 0 3.96 0 6 0 C6 8.91 6 17.82 6 27 C-8.77772467 27.27366157 -8.77772467 27.27366157 -12 25 C-14.82880947 20.7567858 -14.8863104 16.9775825 -14 12 C-12.29200786 9.1052045 -11.15553974 8.63411879 -8 7 C-5.10160022 6.90650323 -2.86931209 7.35687833 0 8 C0 5.36 0 2.72 0 0 Z " fill="#858588" transform="translate(275,187)"/>
<path d="M0 0 C6.27 0 12.54 0 19 0 C19 1.32 19 2.64 19 4 C14.71 4 10.42 4 6 4 C6 5.98 6 7.96 6 10 C9.63 10 13.26 10 17 10 C17 11.65 17 13.3 17 15 C13.37 15 9.74 15 6 15 C6 16.65 6 18.3 6 20 C10.29 20 14.58 20 19 20 C19 21.65 19 23.3 19 25 C12.73 25 6.46 25 0 25 C0 16.75 0 8.5 0 0 Z " fill="#838589" transform="translate(418,189)"/>
<path d="M0 0 C2 2 2 2 2.1953125 5.9140625 C2.18200376 7.48449351 2.15813602 9.05486221 2.125 10.625 C2.11597656 11.42679688 2.10695313 12.22859375 2.09765625 13.0546875 C2.07406223 15.03658523 2.03819065 17.01832981 2 19 C-0.27057377 19.05398987 -2.54151288 19.09278742 -4.8125 19.125 C-6.70935547 19.15980469 -6.70935547 19.15980469 -8.64453125 19.1953125 C-12 19 -12 19 -15 17 C-15.5 13.625 -15.5 13.625 -15 10 C-12.5 7.5625 -12.5 7.5625 -10 6 C-11.32 5.34 -12.64 4.68 -14 4 C-14 3.01 -14 2.02 -14 1 C-9.38565925 -1.53044493 -4.99065483 -1.21579803 0 0 Z " fill="#84868D" transform="translate(514,195)"/>
<path d="M0 0 C2.875 2.0625 2.875 2.0625 5 5 C5.33 7.31 5.66 9.62 6 12 C1.05 12 -3.9 12 -9 12 C-8.67 12.66 -8.34 13.32 -8 14 C-5.64400765 14.46751788 -5.64400765 14.46751788 -2.9375 14.625 C-1.55884766 14.73714844 -1.55884766 14.73714844 -0.15234375 14.8515625 C0.55792969 14.90054688 1.26820313 14.94953125 2 15 C2 16.32 2 17.64 2 19 C-1.49474739 20.7473737 -5.18678856 20.55225821 -9 20 C-12.0625 18.125 -12.0625 18.125 -14 15 C-14.67867169 11.52811756 -14.74894654 8.46387775 -14 5 C-9.78011907 0.44697058 -6.12693426 -0.62307806 0 0 Z " fill="#7D808A" transform="translate(466,194)"/>
<path d="M0 0 C2.77996657 1.37779045 3.8634814 2.55082014 6 5 C6.375 8.8125 6.375 8.8125 6 12 C1.71 12 -2.58 12 -7 12 C-6.01 13.485 -6.01 13.485 -5 15 C-3.02252878 15.36297936 -3.02252878 15.36297936 -0.875 15.1875 C0.40375 15.125625 1.6825 15.06375 3 15 C3 16.32 3 17.64 3 19 C-0.47799665 20.73899832 -4.205682 20.58979036 -8 20 C-10.80876128 17.89342904 -12.37569974 16.24860052 -13.9375 13.125 C-14.07426169 8.47510263 -12.90753751 5.01125608 -9.8125 1.5625 C-6.15421082 -0.46988288 -4.13267794 -0.6525281 0 0 Z " fill="#808489" transform="translate(579,194)"/>
<path d="M0 0 C2.77637944 1.38513875 3.86259112 2.54979957 6 5 C6.375 8.8125 6.375 8.8125 6 12 C1.71 12 -2.58 12 -7 12 C-6.01 13.485 -6.01 13.485 -5 15 C-3.02252878 15.36297936 -3.02252878 15.36297936 -0.875 15.1875 C0.40375 15.125625 1.6825 15.06375 3 15 C3 16.32 3 17.64 3 19 C-0.24712583 20.62356291 -3.49111354 20.54582678 -7 20 C-11.36879433 17.65957447 -11.36879433 17.65957447 -13 15 C-13.85383549 11.4808132 -13.85942202 8.51843913 -13 5 C-9.93140516 0.15485026 -5.45846706 -0.97472626 0 0 Z " fill="#83858D" transform="translate(299,194)"/>
<path d="M0 0 C1.65 0 3.3 0 5 0 C5 2.97 5 5.94 5 9 C5.99 8.34 6.98 7.68 8 7 C11.46883989 6.55716938 13.26719644 6.49216845 16.17578125 8.5078125 C18.71991381 11.9835225 18.43949443 15.12485202 18.25 19.25 C18.23195313 19.99507812 18.21390625 20.74015625 18.1953125 21.5078125 C18.14835649 23.33909701 18.07661652 25.16971649 18 27 C16.35 27 14.7 27 13 27 C12.93941406 26.15695313 12.87882812 25.31390625 12.81640625 24.4453125 C12.73261719 23.34960938 12.64882813 22.25390625 12.5625 21.125 C12.48128906 20.03445312 12.40007812 18.94390625 12.31640625 17.8203125 C12.16998297 15.05271029 12.16998297 15.05271029 11 13 C9.35 13.33 7.7 13.66 6 14 C5.67 18.29 5.34 22.58 5 27 C3.35 27 1.7 27 0 27 C0 18.09 0 9.18 0 0 Z " fill="#808489" transform="translate(384,187)"/>
<path d="M0 0 C1.65 0 3.3 0 5 0 C5 0.66 5 1.32 5 2 C5.53625 1.649375 6.0725 1.29875 6.625 0.9375 C9.81689475 -0.32245845 11.72424145 0.09393913 15 1 C16.671875 2.0390625 16.671875 2.0390625 18 4 C18.21714241 6.81127043 18.28284276 9.3883345 18.1875 12.1875 C18.16719727 13.31188477 18.16719727 13.31188477 18.14648438 14.45898438 C18.11118539 16.30629767 18.05737917 18.15324066 18 20 C16.35 20 14.7 20 13 20 C12.67 15.38 12.34 10.76 12 6 C10.68 5.67 9.36 5.34 8 5 C5.22957891 7.77042109 5.60203894 9.76533805 5.375 13.625 C5.30023437 14.81351563 5.22546875 16.00203125 5.1484375 17.2265625 C5.09945312 18.14179688 5.05046875 19.05703125 5 20 C3.35 20 1.7 20 0 20 C0 13.4 0 6.8 0 0 Z " fill="#85858C" transform="translate(522,194)"/>
<path d="M0 0 C0.66 0 1.32 0 2 0 C2.14622024 3.20784721 2.23436651 6.41482961 2.3125 9.625 C2.35439453 10.52863281 2.39628906 11.43226563 2.43945312 12.36328125 C2.52008349 16.7818251 2.51928967 20.0118449 -0.2734375 23.5859375 C-3.91584299 26.81087531 -6.25331562 27.28683668 -11 27 C-14.5 26.0625 -14.5 26.0625 -17 25 C-16.67 23.35 -16.34 21.7 -16 20 C-14.14375 20.309375 -14.14375 20.309375 -12.25 20.625 C-8.88090165 21.06107124 -6.87158079 21.03403639 -4 19 C-5.258125 19.061875 -6.51625 19.12375 -7.8125 19.1875 C-11.72231986 19.20826011 -11.72231986 19.20826011 -14 17.5 C-14.33 17.005 -14.66 16.51 -15 16 C-14.01 15.67 -13.02 15.34 -12 15 C-11.67 14.34 -11.34 13.68 -11 13 C-9.6078125 13.061875 -9.6078125 13.061875 -8.1875 13.125 C-4.84190281 13.27136339 -4.84190281 13.27136339 -2 11 C-1.45629822 8.8716709 -1.45629822 8.8716709 -1.375 6.5 C-1.07894737 2.15789474 -1.07894737 2.15789474 0 0 Z " fill="#828589" transform="translate(492,195)"/>
<path d="M0 0 C2.9375 1.5 2.9375 1.5 5 3 C4.34 4.32 3.68 5.64 3 7 C0.98177083 6.67447917 -1.03645833 6.34895833 -3.0546875 6.0234375 C-3.69664062 6.01570312 -4.33859375 6.00796875 -5 6 C-7.26839983 7.83265325 -7.26839983 7.83265325 -7.1875 10.5625 C-7.27003323 12.94689723 -7.27003323 12.94689723 -6 14 C-4.00049364 14.04443347 -1.99961564 14.03920815 0 14 C1.32 14 2.64 14 4 14 C4 15.32 4 16.64 4 18 C0.29629592 20.46913606 -2.70522911 20.78602411 -7 20 C-10.6584596 18.1707702 -12.68901763 15.9329471 -14 12 C-14 7.35527851 -13.0018049 5.0590509 -9.8125 1.6875 C-6.21852832 -0.46888301 -4.13327601 -0.5166595 0 0 Z " fill="#808288" transform="translate(558,194)"/>
<path d="M0 0 C3.96 0 7.92 0 12 0 C12 1.32 12 2.64 12 4 C10.02 4 8.04 4 6 4 C6 6.64 6 9.28 6 12 C7.98 12 9.96 12 12 12 C12 12.66 12 13.32 12 14 C11.34 14 10.68 14 10 14 C10 14.66 10 15.32 10 16 C8.68 16 7.36 16 6 16 C6 18.97 6 21.94 6 25 C4.02 25 2.04 25 0 25 C0 16.75 0 8.5 0 0 Z " fill="#85878E" transform="translate(225,189)"/>
<path d="M0 0 C1.65 0 3.3 0 5 0 C5 1.65 5 3.3 5 5 C6.65 5 8.3 5 10 5 C10 6.32 10 7.64 10 9 C8.35 9 6.7 9 5 9 C5.33 12.3 5.66 15.6 6 19 C7.65 19.33 9.3 19.66 11 20 C10.67 21.65 10.34 23.3 10 25 C3.57178218 25.36386139 3.57178218 25.36386139 1.28125 23.90625 C-0.63271296 21.05864657 -0.28800847 18.69628509 -0.1875 15.3125 C-0.16042969 14.13300781 -0.13335937 12.95351562 -0.10546875 11.73828125 C-0.07066406 10.83464844 -0.03585937 9.93101562 0 9 C-0.99 9 -1.98 9 -3 9 C-3 7.68 -3 6.36 -3 5 C-2.01 5 -1.02 5 0 5 C0 3.35 0 1.7 0 0 Z " fill="#7E8188" transform="translate(369,189)"/>
<path d="M0 0 C1.98 0 3.96 0 6 0 C6 3.3 6 6.6 6 10 C4.02 10.99 4.02 10.99 2 12 C1.44826982 14.12757017 1.44826982 14.12757017 1.5 16.5 C1.46875 18.90625 1.46875 18.90625 1 21 C-1.26759932 22.54905962 -2.38123256 23.07279617 -5.125 22.75 C-7 22 -7 22 -9 20 C-9.25 17 -9.25 17 -9 14 C-7 12 -7 12 -3.375 11.875 C-1.704375 11.936875 -1.704375 11.936875 0 12 C-0.66 10.68 -1.32 9.36 -2 8 C-1.34 8 -0.68 8 0 8 C0 5.36 0 2.72 0 0 Z " fill="#77787D" transform="translate(275,187)"/>
<path d="M0 0 C1.65 0 3.3 0 5 0 C5 8.91 5 17.82 5 27 C3.35 27 1.7 27 0 27 C-0.8149484 17.8224273 -1.11139151 9.18180367 0 0 Z " fill="#84868D" transform="translate(442,187)"/>
<path d="M0 0 C2.5625 1.375 2.5625 1.375 4 4 C4.72358826 8.58526458 4.81981342 12.5029494 2.5625 16.625 C-1.29059104 18.69251226 -4.72799219 18.73682337 -9 18 C-11.5625 16.625 -11.5625 16.625 -13 14 C-13.72358826 9.41473542 -13.81981342 5.4970506 -11.5625 1.375 C-7.70940896 -0.69251226 -4.27200781 -0.73682337 0 0 Z M-11 6 C-11.60975382 9.65852292 -11.44543026 11.30512879 -9.4375 14.4375 C-6.97376884 16.33441535 -6.97376884 16.33441535 -3.375 15.9375 C0.25516924 15.3249155 0.25516924 15.3249155 2 12 C2.46649698 8.34577364 2.46996298 6.66142938 0.3125 3.625 C-1.88575314 1.84807743 -1.88575314 1.84807743 -4.5 1.5 C-7.87013879 2.17402776 -9.01677007 3.2087875 -11 6 Z " fill="#FCF9F9" transform="translate(757,20)"/>
<path d="M0 0 C2 2 2 2 2.125 5.625 C2.08375 6.73875 2.0425 7.8525 2 9 C1.01 9.33 0.02 9.66 -1 10 C-1.33 9.34 -1.66 8.68 -2 8 C-3.99509331 7.77105487 -5.99052794 7.5442817 -7.98828125 7.33984375 C-10.666559 6.88739683 -12.16380022 5.98921643 -14 4 C-14 3.01 -14 2.02 -14 1 C-9.38565925 -1.53044493 -4.99065483 -1.21579803 0 0 Z " fill="#818389" transform="translate(514,195)"/>
<path d="M0 0 C0.66 0 1.32 0 2 0 C2 6.27 2 12.54 2 19 C1.01 19 0.02 19 -1 19 C-1.33 18.34 -1.66 17.68 -2 17 C-3.65 17 -5.3 17 -7 17 C-7 17.33 -7 17.66 -7 18 C-9.31 18 -11.62 18 -14 18 C-14.33 17.01 -14.66 16.02 -15 15 C-14.01 15 -13.02 15 -12 15 C-11.67 14.34 -11.34 13.68 -11 13 C-9.6078125 13.061875 -9.6078125 13.061875 -8.1875 13.125 C-4.84190281 13.27136339 -4.84190281 13.27136339 -2 11 C-1.45629822 8.8716709 -1.45629822 8.8716709 -1.375 6.5 C-1.07894737 2.15789474 -1.07894737 2.15789474 0 0 Z " fill="#85878B" transform="translate(492,195)"/>
<path d="M0 0 C1.65 0 3.3 0 5 0 C5 6.6 5 13.2 5 20 C3.35 20 1.7 20 0 20 C0 13.4 0 6.8 0 0 Z " fill="#86878F" transform="translate(252,194)"/>
<path d="M0 0 C1.65 0 3.3 0 5 0 C5 6.6 5 13.2 5 20 C3.35 20 1.7 20 0 20 C0 13.4 0 6.8 0 0 Z " fill="#84848B" transform="translate(357,194)"/>
<path d="M0 0 C4.23202372 -0.42320237 7.04475835 -0.40361534 10.4375 2.1875 C13 5 13 5 13.375 7.8125 C13.25125 8.534375 13.1275 9.25625 13 10 C12.67 9.34 12.34 8.68 12 8 C11.34 8 10.68 8 10 8 C9.67 8.66 9.34 9.32 9 10 C6.03 9.67 3.06 9.34 0 9 C0 6 0 3 0 0 Z " fill="#808589" transform="translate(292,194)"/>
<path d="M0 0 C2.4375 0 2.4375 0 5 1 C7.36101949 4.66365093 8 6.59781468 8 11 C3.05 11 -1.9 11 -7 11 C-7 10.01 -7 9.02 -7 8 C-4.03 8 -1.06 8 2 8 C1.0022242 5.00667261 0.2477975 4.05233685 -2 2 C-1.34 1.34 -0.68 0.68 0 0 Z " fill="#81858A" transform="translate(464,195)"/>
<path d="M0 0 C0.33 0 0.66 0 1 0 C1.33 2.97 1.66 5.94 2 9 C2.66 9 3.32 9 4 9 C4.33 8.34 4.66 7.68 5 7 C4.67 10.3 4.34 13.6 4 17 C4.66 17 5.32 17 6 17 C6 19.64 6 22.28 6 25 C4.02 25 2.04 25 0 25 C0 16.75 0 8.5 0 0 Z " fill="#7C8184" transform="translate(225,189)"/>
<path d="M0 0 C0.99 0.103125 1.98 0.20625 3 0.3125 C5 3.3125 5 3.3125 4.6875 6.4375 C4 9.3125 4 9.3125 3 10.3125 C1.00041636 10.35330783 -1.00045254 10.35504356 -3 10.3125 C-3 9.6525 -3 8.9925 -3 8.3125 C-3.66 8.3125 -4.32 8.3125 -5 8.3125 C-5.125 5.4375 -5.125 5.4375 -5 2.3125 C-3 0.3125 -3 0.3125 0 0 Z " fill="#313249" transform="translate(484,198.6875)"/>
<path d="M0 0 C2.5 0.25 2.5 0.25 4.5 2.25 C4.8403296 5.44909824 5.02148335 7.4417008 3.25 10.1875 C1.5 11.25 1.5 11.25 -0.5625 11.0625 C-2.5 10.25 -2.5 10.25 -4.5 8.25 C-4.75 5.25 -4.75 5.25 -4.5 2.25 C-2.5 0.25 -2.5 0.25 0 0 Z " fill="#34384D" transform="translate(270.5,198.75)"/>
<path d="M0 0 C1.39456452 0.00667256 2.78911118 0.01863093 4.18359375 0.03515625 C4.89451172 0.03966797 5.60542969 0.04417969 6.33789062 0.04882812 C8.09899388 0.06064761 9.86005411 0.07858362 11.62109375 0.09765625 C10.63109375 0.59265625 10.63109375 0.59265625 9.62109375 1.09765625 C9.15276725 3.68370957 9.15276725 3.68370957 8.99609375 6.66015625 C8.92132813 7.67207031 8.8465625 8.68398437 8.76953125 9.7265625 C8.72054688 10.50902344 8.6715625 11.29148438 8.62109375 12.09765625 C7.63109375 12.09765625 6.64109375 12.09765625 5.62109375 12.09765625 C5.29109375 10.11765625 4.96109375 8.13765625 4.62109375 6.09765625 C2.31109375 6.09765625 0.00109375 6.09765625 -2.37890625 6.09765625 C-1.71890625 4.77765625 -1.05890625 3.45765625 -0.37890625 2.09765625 C-1.69890625 1.76765625 -3.01890625 1.43765625 -4.37890625 1.09765625 C-3.37890625 0.09765625 -3.37890625 0.09765625 0 0 Z " fill="#797C81" transform="translate(482.37890625,193.90234375)"/>
<path d="M0 0 C0.99 0.99 1.98 1.98 3 3 C2.01 3.495 2.01 3.495 1 4 C0.64820803 6.3306218 0.31669821 8.66435067 0 11 C-1.0625 13.4375 -1.0625 13.4375 -2 15 C-2.99 15 -3.98 15 -5 15 C-5.12375 16.216875 -5.2475 17.43375 -5.375 18.6875 C-5.89228578 22.86273518 -7.12256828 26.24513655 -9 30 C-10.16015625 28.44140625 -10.16015625 28.44140625 -11 26 C-10.27676725 23.4761878 -9.49272148 21.31610255 -8.4375 18.9375 C-8.1595459 18.27935303 -7.8815918 17.62120605 -7.59521484 16.94311523 C-6.7484226 14.95351535 -5.87878952 12.97565089 -5 11 C-4.49855469 9.86820313 -3.99710938 8.73640625 -3.48046875 7.5703125 C-2.33907242 5.03753102 -1.18137012 2.51433198 0 0 Z " fill="#E8E9F0" transform="translate(190,50)"/>
<path d="M0 0 C-0.57584432 2.38564077 -1.22227595 4.66682784 -2 7 C-1.01 7 -0.02 7 1 7 C0.67 7.66 0.34 8.32 0 9 C-1.43655854 9.08131463 -2.8744483 9.13933559 -4.3125 9.1875 C-5.51326172 9.23970703 -5.51326172 9.23970703 -6.73828125 9.29296875 C-9.47851584 8.93801608 -10.29171079 8.10633718 -12 6 C-11.34 5.67 -10.68 5.34 -10 5 C-9.67 4.01 -9.34 3.02 -9 2 C-5.99208089 -0.04108797 -3.57804656 -0.19878036 0 0 Z " fill="#7D8088" transform="translate(511,205)"/>
<path d="M0 0 C6.15234375 -0.09765625 6.15234375 -0.09765625 8 0 C9 1 9 1 9.0625 4.0625 C9.041875 5.031875 9.02125 6.00125 9 7 C6.04335481 8.4783226 3.25770263 8.06032783 0 8 C0 5.36 0 2.72 0 0 Z " fill="#2E3045" transform="translate(231,193)"/>
<path d="M0 0 C3.875 1.875 3.875 1.875 5 3 C5.04092937 5.33297433 5.04241723 7.66705225 5 10 C1.04 10 -2.92 10 -7 10 C-7 9.01 -7 8.02 -7 7 C-4.69 7 -2.38 7 0 7 C-0.185625 6.030625 -0.37125 5.06125 -0.5625 4.0625 C-0.706875 3.051875 -0.85125 2.04125 -1 1 C-0.67 0.67 -0.34 0.34 0 0 Z " fill="#85868E" transform="translate(580,196)"/>
<path d="M0 0 C1.37478516 0.01740234 1.37478516 0.01740234 2.77734375 0.03515625 C3.69644531 0.04417969 4.61554688 0.05320313 5.5625 0.0625 C6.27277344 0.07410156 6.98304688 0.08570313 7.71484375 0.09765625 C7.71484375 1.41765625 7.71484375 2.73765625 7.71484375 4.09765625 C4.27273526 5.81871049 0.47850728 5.61240242 -3.28515625 5.09765625 C-5.84765625 3.09765625 -5.84765625 3.09765625 -7.28515625 1.09765625 C-5.96515625 1.09765625 -4.64515625 1.09765625 -3.28515625 1.09765625 C-2.28515625 0.09765625 -2.28515625 0.09765625 0 0 Z " fill="#81858B" transform="translate(460.28515625,208.90234375)"/>
<path d="M0 0 C0.33 0 0.66 0 1 0 C1.33 2.97 1.66 5.94 2 9 C2.66 7.02 3.32 5.04 4 3 C4.66 3 5.32 3 6 3 C6.9765625 9.0546875 6.9765625 9.0546875 7 11 C6.34 11.66 5.68 12.32 5 13 C5 12.01 5 11.02 5 10 C4.34 10 3.68 10 3 10 C1.9458482 13.16245541 1.68724328 15.86948218 1.4375 19.1875 C1.35371094 20.27417969 1.26992188 21.36085937 1.18359375 22.48046875 C1.12300781 23.31191406 1.06242187 24.14335937 1 25 C0.67 25 0.34 25 0 25 C0 16.75 0 8.5 0 0 Z " fill="#797B82" transform="translate(418,189)"/>
<path d="M0 0 C0.66 0 1.32 0 2 0 C2 4.62 2 9.24 2 14 C0.35 14 -1.3 14 -3 14 C-3.57293869 4.26004228 -3.57293869 4.26004228 0 0 Z " fill="#84878D" transform="translate(400,200)"/>
<path d="M0 0 C0 0.99 0 1.98 0 3 C-2.97 3 -5.94 3 -9 3 C-8.67 4.98 -8.34 6.96 -8 9 C-8.99 9 -9.98 9 -11 9 C-11 5.7 -11 2.4 -11 -1 C-6.58937864 -2.0257259 -4.07369424 -2.03684712 0 0 Z " fill="#7B7E77" transform="translate(466,200)"/>
<path d="M0 0 C1.91302307 3.26613695 2.35674661 5.99445248 2.625 9.75 C2.69976562 10.73484375 2.77453125 11.7196875 2.8515625 12.734375 C2.92503906 13.85585937 2.92503906 13.85585937 3 15 C1.35 15 -0.3 15 -2 15 C-2.05386629 12.87527424 -2.09273071 10.75016348 -2.125 8.625 C-2.14820313 7.44164062 -2.17140625 6.25828125 -2.1953125 5.0390625 C-2 2 -2 2 0 0 Z " fill="#89868C" transform="translate(371,195)"/>
<path d="M0 0 C4.29 0 8.58 0 13 0 C13 1.65 13 3.3 13 5 C7.06 5 1.12 5 -5 5 C-5 4.67 -5 4.34 -5 4 C-0.38 4 4.24 4 9 4 C9 3.34 9 2.68 9 2 C6.36 2 3.72 2 1 2 C0.67 1.34 0.34 0.68 0 0 Z " fill="#818692" transform="translate(424,209)"/>
<path d="M0 0 C0.33 0 0.66 0 1 0 C1.35739312 7.08167855 1.30543433 13.56892484 -2 20 C-4.1875 22.0625 -4.1875 22.0625 -6 23 C-5.86722656 22.40832031 -5.73445312 21.81664063 -5.59765625 21.20703125 C-4.68994822 17.14553475 -3.7908887 13.08625829 -3 9 C-2.01 8.67 -1.02 8.34 0 8 C0 5.36 0 2.72 0 0 Z " fill="#DDDEE6" transform="translate(135,72)"/>
<path d="M0 0 C2.31 0 4.62 0 7 0 C7.33 2.31 7.66 4.62 8 7 C5.36 7 2.72 7 0 7 C0 4.69 0 2.38 0 0 Z " fill="#FCF9F9" transform="translate(749,25)"/>
<path d="M0 0 C1.65 0 3.3 0 5 0 C5 0.66 5 1.32 5 2 C5.53625 1.649375 6.0725 1.29875 6.625 0.9375 C9.77513726 -0.30597523 11.76902047 0.13840546 15 1 C15.33 1.66 15.66 2.32 16 3 C15.34 3 14.68 3 14 3 C13.67 3.66 13.34 4.32 13 5 C13 4.34 13 3.68 13 3 C10.0280615 4.12451727 7.66559313 5.22293791 5 7 C5 6.01 5 5.02 5 4 C4.34 4 3.68 4 3 4 C3 3.34 3 2.68 3 2 C2.01 2 1.02 2 0 2 C0 1.34 0 0.68 0 0 Z " fill="#7E8186" transform="translate(522,194)"/>
<path d="M0 0 C4.05606165 0.46800711 7.46588679 0.87953208 11 3 C11 3.99 11 4.98 11 6 C4.67741935 6.36476427 4.67741935 6.36476427 1.5625 4.6875 C0 3 0 3 0 0 Z " fill="#757684" transform="translate(500,196)"/>
<path d="M0 0 C1.65 0 3.3 0 5 0 C3.68 0.33 2.36 0.66 1 1 C1 1.66 1 2.32 1 3 C1.66 3 2.32 3 3 3 C3 8.28 3 13.56 3 19 C2.34 19 1.68 19 1 19 C0.67 12.73 0.34 6.46 0 0 Z " fill="#848283" transform="translate(252,194)"/>
<path d="M0 0 C0.66 0 1.32 0 2 0 C3.32 3.63 4.64 7.26 6 11 C5.34 11.66 4.68 12.32 4 13 C3.01 13 2.02 13 1 13 C1 12.34 1 11.68 1 11 C0.34 11 -0.32 11 -1 11 C-1 10.34 -1 9.68 -1 9 C-0.34 9 0.32 9 1 9 C1 7.02 1 5.04 1 3 C0.34 2.67 -0.32 2.34 -1 2 C-0.67 1.34 -0.34 0.68 0 0 Z " fill="#ECEDEF" transform="translate(259,143)"/>
<path d="M0 0 C0.33 0 0.66 0 1 0 C2.42258812 3.82320557 3.24042276 6.91281305 3 11 C2.34 10.67 1.68 10.34 1 10 C0.34 10.66 -0.32 11.32 -1 12 C-2.31747324 12.69748583 -3.64914193 13.36959957 -5 14 C-3.45730076 9.27934033 -1.92205381 4.58335908 0 0 Z " fill="#ECECF0" transform="translate(150,142)"/>
<path d="M0 0 C0 1.32 0 2.64 0 4 C-2.95664519 5.4783226 -5.74229737 5.06032783 -9 5 C-9.33 3.68 -9.66 2.36 -10 1 C-6.59437148 0.22157062 -3.49234244 -0.09978121 0 0 Z " fill="#7F8088" transform="translate(582,209)"/>
<path d="M0 0 C0.66 0.33 1.32 0.66 2 1 C1.67 1.99 1.34 2.98 1 4 C1 5.32 1 6.64 1 8 C-1.64 8 -4.28 8 -7 8 C-7 6.68 -7 5.36 -7 4 C-5.02 3.67 -3.04 3.34 -1 3 C-0.67 2.01 -0.34 1.02 0 0 Z " fill="#70717B" transform="translate(579,195)"/>
<path d="M0 0 C0.66 0.33 1.32 0.66 2 1 C1.36610765 4.49844386 -0.05177694 6.84086876 -2.0625 9.75 C-2.61035156 10.54921875 -3.15820312 11.3484375 -3.72265625 12.171875 C-4.14417969 12.77515625 -4.56570313 13.3784375 -5 14 C-5.99 13.67 -6.98 13.34 -8 13 C-5.36 8.71 -2.72 4.42 0 0 Z " fill="#ECEDF1" transform="translate(591,46)"/>
<path d="M0 0 C3.78570414 1.26190138 4.21831571 2.54855815 6.1875 5.9375 C6.71730469 6.83339844 7.24710938 7.72929688 7.79296875 8.65234375 C9 11 9 11 9 13 C5.56803255 11.85601085 4.95251462 10.97505774 2.875 8.125 C2.35679687 7.42632812 1.83859375 6.72765625 1.3046875 6.0078125 C0 4 0 4 -1 1 C-0.67 0.67 -0.34 0.34 0 0 Z " fill="#EFEFF4" transform="translate(538,46)"/>
<path d="M0 0 C0.33 0 0.66 0 1 0 C1 8.25 1 16.5 1 25 C-0.65 25.66 -2.3 26.32 -4 27 C-3.51917969 25.88625 -3.03835938 24.7725 -2.54296875 23.625 C-0.71778043 18.75783114 -0.45113494 14.15721963 -0.3125 9 C-0.27833984 8.12988281 -0.24417969 7.25976562 -0.20898438 6.36328125 C-0.12742017 4.24261185 -0.06201472 2.12133109 0 0 Z " fill="#C8CCD8" transform="translate(488,98)"/>
<path d="M0 0 C0.66 0.33 1.32 0.66 2 1 C1.52797514 5.24822374 -0.96655518 7.19989709 -4 10 C-6.01920337 8.69593116 -8.01924973 7.36176581 -10 6 C-10 5.67 -10 5.34 -10 5 C-8.576875 5.0928125 -8.576875 5.0928125 -7.125 5.1875 C-5.578125 5.0946875 -5.578125 5.0946875 -4 5 C-3.34 4.01 -2.68 3.02 -2 2 C-1.34 2 -0.68 2 0 2 C0 1.34 0 0.68 0 0 Z " fill="#E9EAF1" transform="translate(737,68)"/>
<path d="M0 0 C1.98 0.66 3.96 1.32 6 2 C6 2.99 6 3.98 6 5 C1.77777778 8 1.77777778 8 -1 8 C-1.33 6.35 -1.66 4.7 -2 3 C-1.34 3 -0.68 3 0 3 C0 2.01 0 1.02 0 0 Z " fill="#EFEEF1" transform="translate(486,149)"/>
<path d="M0 0 C1.32 0.66 2.64 1.32 4 2 C2.68775452 5.93673644 1.08089673 8.22719294 -2 11 C-2.66 10.01 -3.32 9.02 -4 8 C-2.25 4.125 -2.25 4.125 0 3 C0 2.01 0 1.02 0 0 Z " fill="#E8EAF1" transform="translate(743,56)"/>
<path d="M0 0 C0.33 0.99 0.66 1.98 1 3 C1.99 3.33 2.98 3.66 4 4 C3.34 4.66 2.68 5.32 2 6 C1.67 5.67 1.34 5.34 1 5 C0.34 5.66 -0.32 6.32 -1 7 C-3.625 6.625 -3.625 6.625 -6 6 C-4.68 5.01 -3.36 4.02 -2 3 C-4.64 3 -7.28 3 -10 3 C-7.29536552 -0.8183075 -4.37912428 -0.24787496 0 0 Z " fill="#6C7077" transform="translate(490,211)"/>
<path d="M0 0 C0.66 0.33 1.32 0.66 2 1 C4.37123246 1.23029956 6.74741943 1.41119942 9.125 1.5625 C10.40632812 1.64628906 11.68765625 1.73007813 13.0078125 1.81640625 C14.48894531 1.90728516 14.48894531 1.90728516 16 2 C16 2.33 16 2.66 16 3 C15.20335937 3.02578125 14.40671875 3.0515625 13.5859375 3.078125 C7.18240118 3.42089337 2.92103622 3.76244103 -2 8 C-2.125 5.125 -2.125 5.125 -2 2 C-1.34 1.34 -0.68 0.68 0 0 Z " fill="#CECFD5" transform="translate(691,64)"/>
<path d="M0 0 C1.93784265 0.14120714 3.87526955 0.28812873 5.8125 0.4375 C7.43091797 0.55931641 7.43091797 0.55931641 9.08203125 0.68359375 C12 1 12 1 15 2 C14.67 2.66 14.34 3.32 14 4 C13.0925 3.814375 12.185 3.62875 11.25 3.4375 C8.22185402 3.02986496 6.82616952 3.15214914 4 4 C2.68 4 1.36 4 0 4 C0 2.68 0 1.36 0 0 Z " fill="#E4E7EC" transform="translate(99,46)"/>
<path d="M0 0 C3.28788824 3.11016455 5.83735988 6.01618925 8 10 C7.01 10 6.02 10 5 10 C5 9.34 5 8.68 5 8 C4.360625 7.896875 3.72125 7.79375 3.0625 7.6875 C2.381875 7.460625 1.70125 7.23375 1 7 C0.67 6.01 0.34 5.02 0 4 C-0.66 4 -1.32 4 -2 4 C-2 3.34 -2 2.68 -2 2 C-1.34 2 -0.68 2 0 2 C0 1.34 0 0.68 0 0 Z " fill="#E8E6EE" transform="translate(324,77)"/>
<path d="M0 0 C2.475 0.99 2.475 0.99 5 2 C5 2.66 5 3.32 5 4 C5.66 4.33 6.32 4.66 7 5 C6.01 6.32 5.02 7.64 4 9 C2.68 8.34 1.36 7.68 0 7 C0 4.69 0 2.38 0 0 Z " fill="#797B81" transform="translate(474,203)"/>
<path d="M0 0 C2.11386464 2.11386464 2.97008322 3.79267603 4.1875 6.5 C4.55230469 7.2940625 4.91710937 8.088125 5.29296875 8.90625 C5.52628906 9.5971875 5.75960937 10.288125 6 11 C5.67 11.66 5.34 12.32 5 13 C3.35 12.67 1.7 12.34 0 12 C0 8.04 0 4.08 0 0 Z " fill="#E8E9EE" transform="translate(236,88)"/>
<path d="M0 0 C0.99 0.33 1.98 0.66 3 1 C3 2.65 3 4.3 3 6 C1.125 6.625 1.125 6.625 -1 7 C-1.66 6.34 -2.32 5.68 -3 5 C-2.75 2.9375 -2.75 2.9375 -2 1 C-1.34 0.67 -0.68 0.34 0 0 Z " fill="#797E83" transform="translate(359,186)"/>
<path d="M0 0 C5.75 -0.125 5.75 -0.125 8 1 C8 1.99 8 2.98 8 4 C5.36 4 2.72 4 0 4 C0 2.68 0 1.36 0 0 Z " fill="#474A52" transform="translate(292,199)"/>
<path d="M0 0 C0.33 0.66 0.66 1.32 1 2 C1.66 2 2.32 2 3 2 C3.25 7.625 3.25 7.625 1 11 C0.01 11 -0.98 11 -2 11 C-1.855625 10.29875 -1.71125 9.5975 -1.5625 8.875 C-0.98521625 5.92443859 -0.48304859 2.96729849 0 0 Z " fill="#ECEDEC" transform="translate(685,73)"/>
<path d="M0 0 C5.54436129 1.28708387 10.70201036 2.91864693 16 5 C15.01 5.66 14.02 6.32 13 7 C8.1547309 5.89880248 4.21711323 3.53026794 0 1 C0 0.67 0 0.34 0 0 Z " fill="#E2E3ED" transform="translate(719,45)"/>
<path d="M0 0 C1.65 0 3.3 0 5 0 C4.67 1.65 4.34 3.3 4 5 C3.34 5 2.68 5 2 5 C1.67 6.65 1.34 8.3 1 10 C0.67 10 0.34 10 0 10 C0 6.7 0 3.4 0 0 Z " fill="#838790" transform="translate(384,187)"/>
<path d="M0 0 C2.0625 0.1875 2.0625 0.1875 4 1 C4.33 1.99 4.66 2.98 5 4 C4.67 4.66 4.34 5.32 4 6 C2.35 6 0.7 6 -1 6 C-1.625 4.125 -1.625 4.125 -2 2 C-1.34 1.34 -0.68 0.68 0 0 Z " fill="#788086" transform="translate(253,186)"/>
<path d="M0 0 C1.125 1.5625 1.125 1.5625 2 4 C1.125 7.75 1.125 7.75 0 11 C-1.32 11.33 -2.64 11.66 -4 12 C-2.66666667 8 -1.33333333 4 0 0 Z " fill="#EAEDF4" transform="translate(160,119)"/>
<path d="M0 0 C0.33 0 0.66 0 1 0 C1.88785839 5.22849942 1.66040335 8.01878994 0 13 C-1.98 9.535 -1.98 9.535 -4 6 C-3.01 5.67 -2.02 5.34 -1 5 C-0.67 3.35 -0.34 1.7 0 0 Z " fill="#EDEEF1" transform="translate(351,142)"/>
<path d="M0 0 C-0.33 1.32 -0.66 2.64 -1 4 C-2.65 4.33 -4.3 4.66 -6 5 C-6.33 3.68 -6.66 2.36 -7 1 C-4.53721199 -0.231394 -2.7204945 -0.07159196 0 0 Z " fill="#41434E" transform="translate(511,205)"/>
<path d="M0 0 C6.15234375 -0.09765625 6.15234375 -0.09765625 8 0 C9 1 9 1 9.0625 4.0625 C9.041875 5.031875 9.02125 6.00125 9 7 C7.68 7.33 6.36 7.66 5 8 C5.33 5.69 5.66 3.38 6 1 C4.02 1 2.04 1 0 1 C0 0.67 0 0.34 0 0 Z " fill="#424351" transform="translate(231,193)"/>
<path d="M0 0 C2.64 0 5.28 0 8 0 C8 0.66 8 1.32 8 2 C8.99 1.67 9.98 1.34 11 1 C11 1.66 11 2.32 11 3 C7.37 3 3.74 3 0 3 C0 2.01 0 1.02 0 0 Z " fill="#848695" transform="translate(457,203)"/>
<path d="M0 0 C-1.485 5.445 -1.485 5.445 -3 11 C-3.66 10.67 -4.32 10.34 -5 10 C-4.88637738 8.5199159 -4.75877092 7.04089926 -4.625 5.5625 C-4.55539062 4.73878906 -4.48578125 3.91507813 -4.4140625 3.06640625 C-4.27742188 2.38449219 -4.14078125 1.70257813 -4 1 C-2 0 -2 0 0 0 Z " fill="#7D8189" transform="translate(354,190)"/>
<path d="M0 0 C1 2 1 2 0.22265625 4.6015625 C-0.16019531 5.59929687 -0.54304687 6.59703125 -0.9375 7.625 C-1.50791016 9.12933594 -1.50791016 9.12933594 -2.08984375 10.6640625 C-2.39019531 11.43492187 -2.69054687 12.20578125 -3 13 C-3.66 12.01 -4.32 11.02 -5 10 C-3.93555816 6.32283729 -2.02850758 3.22717116 0 0 Z " fill="#E5E5EF" transform="translate(513,120)"/>
<path d="M0 0 C2.475 0.99 2.475 0.99 5 2 C4.34 3.32 3.68 4.64 3 6 C2.67 5.34 2.34 4.68 2 4 C1.34 4 0.68 4 0 4 C-0.33 4.66 -0.66 5.32 -1 6 C-1.66 5.67 -2.32 5.34 -3 5 C-1.125 1.125 -1.125 1.125 0 0 Z " fill="#797B7E" transform="translate(548,196)"/>
<path d="M0 0 C1.65 0 3.3 0 5 0 C4.75 2.375 4.75 2.375 4 5 C1.9375 6.3125 1.9375 6.3125 0 7 C0 4.69 0 2.38 0 0 Z " fill="#858691" transform="translate(276,187)"/>
<path d="M0 0 C0.625 1.8125 0.625 1.8125 1 4 C0.01 5.485 0.01 5.485 -1 7 C-4.125 7.1875 -4.125 7.1875 -7 7 C-6 4 -6 4 -4.0625 2.9375 C-3.381875 2.628125 -2.70125 2.31875 -2 2 C-1.34 1.34 -0.68 0.68 0 0 Z " fill="#414556" transform="translate(488,202)"/>
<path d="M0 0 C1.74834267 2.622514 2.51529754 3.99484478 3 7 C2.67 7.66 2.34 8.32 2 9 C2.99 9.33 3.98 9.66 5 10 C4.34 10.66 3.68 11.32 3 12 C2.01 11.34 1.02 10.68 0 10 C-0.29296875 7.6171875 -0.29296875 7.6171875 -0.1875 4.875 C-0.16042969 3.96492187 -0.13335937 3.05484375 -0.10546875 2.1171875 C-0.07066406 1.41851562 -0.03585937 0.71984375 0 0 Z " fill="#888A89" transform="translate(453,200)"/>
<path d="M0 0 C-2.96178773 1.67110042 -5.37071192 2.32682752 -8.75 2.625 C-9.54921875 2.69976562 -10.3484375 2.77453125 -11.171875 2.8515625 C-12.07679688 2.92503906 -12.07679688 2.92503906 -13 3 C-8.12181219 -1.08713033 -5.99541186 -2.75464869 0 0 Z " fill="#EAEAEF" transform="translate(686,49)"/>
<path d="M0 0 C0.66 0.66 1.32 1.32 2 2 C1.34 2 0.68 2 0 2 C-0.33 5.63 -0.66 9.26 -1 13 C-3.17917221 9.73124169 -3.84079772 7.90045589 -4 4 C-2.0625 1.625 -2.0625 1.625 0 0 Z " fill="#787983" transform="translate(327,201)"/>
<path d="M0 0 C0 0.99 0 1.98 0 3 C-2.64 3 -5.28 3 -8 3 C-7.67 2.01 -7.34 1.02 -7 0 C-3.86650268 -1.04449911 -3.01031744 -0.93423645 0 0 Z " fill="#3A3D44" transform="translate(465,199)"/>
<path d="M0 0 C2.89932357 2.39509338 3.50168276 4.31245243 4 8 C3.34 8 2.68 8 2 8 C1.67 8.66 1.34 9.32 1 10 C-0.60725635 6.78548731 -0.05748185 3.56387464 0 0 Z " fill="#ECEBF5" transform="translate(249,119)"/>
<path d="M0 0 C0.99 0.33 1.98 0.66 3 1 C4.1875 3.5625 4.1875 3.5625 5 6 C3.02 6 1.04 6 -1 6 C-1 2 -1 2 0 0 Z " fill="#EAEBEF" transform="translate(742,109)"/>
<path d="M0 0 C3.73884332 2.65654657 5.64978174 4.58110387 7 9 C6.01 9 5.02 9 4 9 C2.61328125 7.25 2.61328125 7.25 1.3125 5 C0.87550781 4.2575 0.43851562 3.515 -0.01171875 2.75 C-0.33785156 2.1725 -0.66398437 1.595 -1 1 C-0.67 0.67 -0.34 0.34 0 0 Z " fill="#E6E5ED" transform="translate(311,99)"/>
<path d="M0 0 C2.475 0.495 2.475 0.495 5 1 C5 1.66 5 2.32 5 3 C6.32 3.33 7.64 3.66 9 4 C8.67 4.66 8.34 5.32 8 6 C7.01 6.33 6.02 6.66 5 7 C3.29115995 5.37660195 1.62553283 3.70680947 0 2 C0 1.34 0 0.68 0 0 Z " fill="#EAEBF3" transform="translate(476,74)"/>
<path d="M0 0 C6.625 -0.125 6.625 -0.125 10 1 C9.34 2.65 8.68 4.3 8 6 C7.236875 5.38125 6.47375 4.7625 5.6875 4.125 C3.00374191 1.94402948 3.00374191 1.94402948 0 0 Z " fill="#E7EEF2" transform="translate(100,69)"/>
<path d="M0 0 C0.66 0 1.32 0 2 0 C0.7508258 3.45925163 -0.67527795 6.14693203 -3 9 C-3.79953138 5.71303767 -4.09658936 4.28976808 -3 1 C-2.34 1.33 -1.68 1.66 -1 2 C-0.67 1.34 -0.34 0.68 0 0 Z " fill="#E6EAEE" transform="translate(614,52)"/>
<path d="M0 0 C1.32 0 2.64 0 4 0 C5.42944945 2.35438733 6.08661261 3.48032433 5.625 6.25 C5.41875 6.8275 5.2125 7.405 5 8 C4.34 8 3.68 8 3 8 C3 6.35 3 4.7 3 3 C2.01 3 1.02 3 0 3 C0 2.01 0 1.02 0 0 Z " fill="#787A7F" transform="translate(568,206)"/>
<path d="M0 0 C2 3 2 3 2 7 C0.68 7 -0.64 7 -2 7 C-2.33 5.35 -2.66 3.7 -3 2 C-2.01 2 -1.02 2 0 2 C0 1.34 0 0.68 0 0 Z " fill="#7A7D82" transform="translate(470,199)"/>
<path d="M0 0 C0.99 0 1.98 0 3 0 C2.25 5.75 2.25 5.75 0 8 C-0.98120464 4.94736336 -0.98120464 3.05263664 0 0 Z " fill="#E7E9ED" transform="translate(198,89)"/>
<path d="M0 0 C0.99 0.33 1.98 0.66 3 1 C2 3 1 5 0 7 C-1.32 6.67 -2.64 6.34 -4 6 C-2.68 4.02 -1.36 2.04 0 0 Z " fill="#E7E8EC" transform="translate(582,61)"/>
<path d="M0 0 C1.4540625 0.0309375 1.4540625 0.0309375 2.9375 0.0625 C2.6075 1.7125 2.2775 3.3625 1.9375 5.0625 C0.2875 4.7325 -1.3625 4.4025 -3.0625 4.0625 C-3.3925 3.0725 -3.7225 2.0825 -4.0625 1.0625 C-3.0625 0.0625 -3.0625 0.0625 0 0 Z " fill="#FAFAFB" transform="translate(686.0625,46.9375)"/>
<path d="M0 0 C1.32 0 2.64 0 4 0 C5.125 1.75 5.125 1.75 6 4 C5.125 6.25 5.125 6.25 4 8 C2.5 6.6875 2.5 6.6875 1 5 C1 4.01 1 3.02 1 2 C0.67 1.34 0.34 0.68 0 0 Z " fill="#7A7A7F" transform="translate(288,206)"/>
<path d="M0 0 C0.66 0 1.32 0 2 0 C2 2.64 2 5.28 2 8 C1.34 8 0.68 8 0 8 C-0.33 7.34 -0.66 6.68 -1 6 C-1.99 6.495 -1.99 6.495 -3 7 C-2.67 5.68 -2.34 4.36 -2 3 C-1.34 3 -0.68 3 0 3 C0 2.01 0 1.02 0 0 Z " fill="#858692" transform="translate(244,193)"/>
<path d="M0 0 C0.66 0.66 1.32 1.32 2 2 C1.01 4.31 0.02 6.62 -1 9 C-1.66 8.34 -2.32 7.68 -3 7 C-2.67028521 3.70285207 -2.3773161 2.3773161 0 0 Z " fill="#E8EAF1" transform="translate(176,143)"/>
<path d="M0 0 C2.475 0.99 2.475 0.99 5 2 C5 2.99 5 3.98 5 5 C2.36 4.67 -0.28 4.34 -3 4 C-2.01 2.68 -1.02 1.36 0 0 Z " fill="#E4E7EB" transform="translate(670,126)"/>
<path d="M0 0 C2.5 2.3125 2.5 2.3125 5 5 C5 5.99 5 6.98 5 8 C3.68 7.34 2.36 6.68 1 6 C1 5.34 1 4.68 1 4 C0.34 3.67 -0.32 3.34 -1 3 C-0.67 2.01 -0.34 1.02 0 0 Z " fill="#E5E8EE" transform="translate(345,105)"/>
<path d="M0 0 C1.65 0.33 3.3 0.66 5 1 C5 1.66 5 2.32 5 3 C3 4.625 3 4.625 1 6 C0.34 5.67 -0.32 5.34 -1 5 C-0.67 3.35 -0.34 1.7 0 0 Z " fill="#737581" transform="translate(476,215)"/>
<path d="M0 0 C2.31 0 4.62 0 7 0 C7 0.33 7 0.66 7 1 C4.69 1 2.38 1 0 1 C0 0.67 0 0.34 0 0 Z M-5 1 C-1 1 -1 1 2 3 C1.67 3.66 1.34 4.32 1 5 C-3.875 3.25 -3.875 3.25 -5 1 Z " fill="#6E7175" transform="translate(458,209)"/>
<path d="M0 0 C2.31 0 4.62 0 7 0 C5.515 1.98 5.515 1.98 4 4 C4.66 4.33 5.32 4.66 6 5 C4.35 5 2.7 5 1 5 C0.67 3.35 0.34 1.7 0 0 Z " fill="#757B81" transform="translate(292,194)"/>
<path d="M0 0 C2.64 0.33 5.28 0.66 8 1 C8 2.32 8 3.64 8 5 C5.36 4.34 2.72 3.68 0 3 C0 2.01 0 1.02 0 0 Z " fill="#E6E8F0" transform="translate(683,159)"/>
<path d="M0 0 C2.04119788 1.61594832 4.04072937 3.2856382 6 5 C6 5.66 6 6.32 6 7 C4.35 6.67 2.7 6.34 1 6 C0.67 4.02 0.34 2.04 0 0 Z " fill="#E5E7EC" transform="translate(132,109)"/>
<path d="M0 0 C1.98 0 3.96 0 6 0 C6.33 0.99 6.66 1.98 7 3 C4.69 3 2.38 3 0 3 C0 2.01 0 1.02 0 0 Z " fill="#363543" transform="translate(572,199)"/>
<path d="M0 0 C0.33 0 0.66 0 1 0 C0.125 7.75 0.125 7.75 -1 10 C-1.66 10 -2.32 10 -3 10 C-3 8.35 -3 6.7 -3 5 C-2.01 4.67 -1.02 4.34 0 4 C0 2.68 0 1.36 0 0 Z " fill="#E5E5F0" transform="translate(748,134)"/>
<path d="M0 0 C1.66832577 2.50248865 2.62381674 4.41149187 3.625 7.1875 C4.01558594 8.26064453 4.01558594 8.26064453 4.4140625 9.35546875 C4.60742188 9.89816406 4.80078125 10.44085938 5 11 C4.34 11 3.68 11 3 11 C3 10.01 3 9.02 3 8 C2.01 8.33 1.02 8.66 0 9 C0 6.03 0 3.06 0 0 Z " fill="#E2E6ED" transform="translate(254,129)"/>
<path d="M0 0 C0.33 1.65 0.66 3.3 1 5 C0.01 5.66 -0.98 6.32 -2 7 C-2.66 5.02 -3.32 3.04 -4 1 C-2 0 -2 0 0 0 Z " fill="#E8E9F0" transform="translate(116,117)"/>
<path d="M0 0 C0.33 0 0.66 0 1 0 C0.50769231 6.52307692 0.50769231 6.52307692 -2.0625 8.9375 C-2.701875 9.288125 -3.34125 9.63875 -4 10 C-3.52449439 8.51965236 -3.04448784 7.04074979 -2.5625 5.5625 C-2.29566406 4.73878906 -2.02882812 3.91507812 -1.75390625 3.06640625 C-1 1 -1 1 0 0 Z " fill="#E6E9F1" transform="translate(133,85)"/>
<path d="M0 0 C4.42857143 5.14285714 4.42857143 5.14285714 5 9 C4.01 9 3.02 9 2 9 C0.50178941 5.62902617 0 3.79557881 0 0 Z " fill="#E4E7EF" transform="translate(505,69)"/>
<path d="M0 0 C1.65 1.65 3.3 3.3 5 5 C3.02 5.99 3.02 5.99 1 7 C1 6.34 1 5.68 1 5 C0.34 5 -0.32 5 -1 5 C-0.67 3.35 -0.34 1.7 0 0 Z " fill="#E5E6EB" transform="translate(318,69)"/>
<path d="M0 0 C3.875 4.75 3.875 4.75 5 7 C3.35 7.33 1.7 7.66 0 8 C0 5.36 0 2.72 0 0 Z " fill="#E5EBF0" transform="translate(313,62)"/>
<path d="M0 0 C1.32 0.66 2.64 1.32 4 2 C3.34 3.32 2.68 4.64 2 6 C1.34 6 0.68 6 0 6 C-0.38218767 4.34385343 -0.71395102 2.67542976 -1 1 C-0.67 0.67 -0.34 0.34 0 0 Z " fill="#797C87" transform="translate(559,207)"/>
<path d="M0 0 C1.98 0 3.96 0 6 0 C6 0.99 6 1.98 6 3 C3.69 3 1.38 3 -1 3 C-0.67 2.01 -0.34 1.02 0 0 Z " fill="#3D3F4B" transform="translate(505,199)"/>
<path d="M0 0 C0.99 0 1.98 0 3 0 C5.1875 3 5.1875 3 7 6 C6.67 6.66 6.34 7.32 6 8 C5.01 7.67 4.02 7.34 3 7 C1.3125 3.4375 1.3125 3.4375 0 0 Z " fill="#E4E5EB" transform="translate(230,139)"/>
<path d="M0 0 C3.465 1.485 3.465 1.485 7 3 C6.67 3.66 6.34 4.32 6 5 C4.35 4.67 2.7 4.34 1 4 C1 3.34 1 2.68 1 2 C0.34 1.67 -0.32 1.34 -1 1 C-0.67 0.67 -0.34 0.34 0 0 Z " fill="#E5E7EE" transform="translate(684,135)"/>
<path d="M0 0 C2.99324263 1.0975223 3.84610901 1.67682892 5.25 4.625 C5.4975 5.40875 5.745 6.1925 6 7 C5.01 7 4.02 7 3 7 C0 2.77777778 0 2.77777778 0 0 Z " fill="#E4E7EC" transform="translate(542,99)"/>
<path d="M0 0 C2.52588702 2.36292656 3.88820837 3.66462511 5 7 C4.34 7.66 3.68 8.32 3 9 C2.34 7.02 1.68 5.04 1 3 C0.34 3 -0.32 3 -1 3 C-0.67 2.01 -0.34 1.02 0 0 Z " fill="#E5E7ED" transform="translate(556,75)"/>
<path d="M0 0 C1.9375 0.3125 1.9375 0.3125 4 1 C4.33 1.99 4.66 2.98 5 4 C4.34 4 3.68 4 3 4 C2.67 4.66 2.34 5.32 2 6 C1.34 6 0.68 6 0 6 C0 4.02 0 2.04 0 0 Z " fill="#3D3E54" transform="translate(479,201)"/>
<path d="M0 0 C0.66 1.32 1.32 2.64 2 4 C1.01 4 0.02 4 -1 4 C-1.33 4.99 -1.66 5.98 -2 7 C-2.66 5.68 -3.32 4.36 -4 3 C-3.01 3 -2.02 3 -1 3 C-0.67 2.01 -0.34 1.02 0 0 Z " fill="#797D82" transform="translate(342,200)"/>
<path d="M0 0 C5.75 0.75 5.75 0.75 8 3 C5.03 3 2.06 3 -1 3 C-0.67 2.01 -0.34 1.02 0 0 Z " fill="#E0E3EB" transform="translate(102,161)"/>
<path d="M0 0 C0.99 0.33 1.98 0.66 3 1 C3.33 1.99 3.66 2.98 4 4 C4.66 4.33 5.32 4.66 6 5 C5.67 6.65 5.34 8.3 5 10 C2.82145293 6.7321794 1.50239966 3.61941735 0 0 Z " fill="#E0E3E8" transform="translate(234,148)"/>
<path d="M0 0 C2.97 0.495 2.97 0.495 6 1 C6 1.66 6 2.32 6 3 C6.66 3.33 7.32 3.66 8 4 C7.01 4.33 6.02 4.66 5 5 C3.35 3.35 1.7 1.7 0 0 Z " fill="#EBEDF3" transform="translate(659,147)"/>
<path d="M0 0 C1.32 0.33 2.64 0.66 4 1 C2.02 3.97 2.02 3.97 0 7 C-0.66 6.67 -1.32 6.34 -2 6 C-1.34 4.02 -0.68 2.04 0 0 Z " fill="#E3E8EE" transform="translate(581,107)"/>
<path d="M0 0 C2.0625 1.75 2.0625 1.75 4 4 C3.75 6.25 3.75 6.25 3 8 C1.5 6.8125 1.5 6.8125 0 5 C-0.1875 2.3125 -0.1875 2.3125 0 0 Z " fill="#E9EAEC" transform="translate(340,98)"/>
<path d="M0 0 C3.26460973 1.80412643 4.88929795 2.83394693 7 6 C6.01 6.495 6.01 6.495 5 7 C3.29115995 5.37660195 1.62553283 3.70680947 0 2 C0 1.34 0 0.68 0 0 Z " fill="#DFE1E7" transform="translate(122,52)"/>
<path d="M0 0 C1.65 0 3.3 0 5 0 C4.34 1.98 3.68 3.96 3 6 C0 2.25 0 2.25 0 0 Z " fill="#ECEDF6" transform="translate(512,46)"/>
<path d="M0 0 C1.65 0 3.3 0 5 0 C5.33 1.32 5.66 2.64 6 4 C4.35 4 2.7 4 1 4 C0.67 2.68 0.34 1.36 0 0 Z " fill="#878896" transform="translate(572,210)"/>
<path d="M0 0 C0.66 0.33 1.32 0.66 2 1 C1.67 1.66 1.34 2.32 1 3 C1.99 3 2.98 3 4 3 C3.67 3.66 3.34 4.32 3 5 C0.03 4.505 0.03 4.505 -3 4 C-2.67 3.01 -2.34 2.02 -2 1 C-1.34 0.67 -0.68 0.34 0 0 Z " fill="#777983" transform="translate(272,209)"/>
<path d="M0 0 C0.66 0 1.32 0 2 0 C2.33 1.32 2.66 2.64 3 4 C3.99 4 4.98 4 6 4 C5.67 5.32 5.34 6.64 5 8 C2.20127563 5.47211993 0.54226981 3.79588866 0 0 Z " fill="#7F8385" transform="translate(565,205)"/>
<path d="M0 0 C1.98 0 3.96 0 6 0 C4.35 1.65 2.7 3.3 1 5 C0.67 3.35 0.34 1.7 0 0 Z " fill="#DDE1E6" transform="translate(736,151)"/>
<path d="M0 0 C1.9375 0.75 1.9375 0.75 4 2 C4.75 4.125 4.75 4.125 5 6 C4.01 6 3.02 6 2 6 C0.3125 3.5 0.3125 3.5 -1 1 C-0.67 0.67 -0.34 0.34 0 0 Z " fill="#E2E5ED" transform="translate(340,137)"/>
<path d="M0 0 C3.26954202 0.56371414 4.82575883 1.49962266 7 4 C6.34 4 5.68 4 5 4 C4.67 4.66 4.34 5.32 4 6 C4 5.34 4 4.68 4 4 C3.34 4 2.68 4 2 4 C1.34 2.68 0.68 1.36 0 0 Z " fill="#E6E8EB" transform="translate(732,101)"/>
<path d="M0 0 C-0.66 1.65 -1.32 3.3 -2 5 C-2.99 5 -3.98 5 -5 5 C-4.625 3.0625 -4.625 3.0625 -4 1 C-2 0 -2 0 0 0 Z " fill="#EDEEF3" transform="translate(587,102)"/>
<path d="M0 0 C3 3.625 3 3.625 3 7 C2.34 7 1.68 7 1 7 C1 6.01 1 5.02 1 4 C0.01 3.67 -0.98 3.34 -2 3 C-2 2.34 -2 1.68 -2 1 C-1.34 0.67 -0.68 0.34 0 0 Z " fill="#E4EAEF" transform="translate(219,49)"/>
<path d="M0 0 C4 4.75 4 4.75 4 7 C1.00306862 6.00102287 -0.02709413 5.34869747 -2 3 C-2 2.34 -2 1.68 -2 1 C-1.34 0.67 -0.68 0.34 0 0 Z " fill="#E6E8EE" transform="translate(543,52)"/>
</svg>
